<svg width="317" height="358" viewBox="0 0 317 358" fill="none" xmlns="http://www.w3.org/2000/svg">
<path d="M133.068 204.007C133.068 197.749 135.871 194.729 138.963 187.517C139.753 185.676 145.577 166.503 145.577 166.503H172.543C172.543 166.503 177.225 184.831 178.112 186.323C181.835 192.602 185.053 197.175 185.053 204.007C185.053 218.364 173.415 230 159.06 230C144.704 230 133.068 218.362 133.068 204.007Z" stroke="black" stroke-width="3.1411" stroke-miterlimit="10" stroke-linecap="round" stroke-linejoin="round"/>
<path d="M159.06 167.147V185.899Z" fill="black"/>
<path d="M159.06 167.147V185.899" stroke="black" stroke-width="3.1411" stroke-miterlimit="10" stroke-linecap="round" stroke-linejoin="round"/>
<path d="M149.684 185.899H168.436Z" fill="black"/>
<path d="M149.684 185.899H168.436" stroke="black" stroke-width="3.1411" stroke-miterlimit="10" stroke-linecap="round" stroke-linejoin="round"/>
<path d="M146.244 148.976C146.244 143.887 151.978 139.761 159.052 139.761C166.126 139.761 171.86 143.887 171.86 148.976H146.244Z" fill="black" stroke="black" stroke-width="2.66365" stroke-miterlimit="10" stroke-linecap="round" stroke-linejoin="round"/>
<path d="M175.51 2.29895C175.51 7.38753 165.48 8.00026 158.406 8.00026C151.333 8.00026 143.203 7.38765 143.203 2.29907L175.51 2.29895Z" fill="black" stroke="black" stroke-width="2.66365" stroke-miterlimit="10" stroke-linecap="round" stroke-linejoin="round"/>
<path d="M171.641 154.959L146.48 160.409Z" fill="black"/>
<path d="M171.641 154.959L146.48 160.409" stroke="black" stroke-width="3.08613" stroke-miterlimit="10" stroke-linecap="round" stroke-linejoin="round"/>
<path d="M155.605 153.247L146.527 155.1Z" fill="black"/>
<path d="M155.605 153.247L146.527 155.1" stroke="black" stroke-width="3.1411" stroke-miterlimit="10" stroke-linecap="round" stroke-linejoin="round"/>
<path d="M171.593 160.268L162.515 162.121Z" fill="black"/>
<path d="M171.593 160.268L162.515 162.121" stroke="black" stroke-width="3.1411" stroke-miterlimit="10" stroke-linecap="round" stroke-linejoin="round"/>
<g filter="url(#filter0_dd_1_1002)">
<circle cx="158.406" cy="199.56" r="30.4064" fill="black" fill-opacity="0.01"/>
</g>
<path d="M158.913 138.763L158.913 8.00026" stroke="black" stroke-width="1.01355"/>
<defs>
<filter id="filter0_dd_1_1002" x="0.293282" y="41.4472" width="316.226" height="316.226" filterUnits="userSpaceOnUse" color-interpolation-filters="sRGB">
<feFlood flood-opacity="0" result="BackgroundImageFix"/>
<feColorMatrix in="SourceAlpha" type="matrix" values="0 0 0 0 0 0 0 0 0 0 0 0 0 0 0 0 0 0 127 0" result="hardAlpha"/>
<feOffset/>
<feGaussianBlur stdDeviation="9.12191"/>
<feColorMatrix type="matrix" values="0 0 0 0 1 0 0 0 0 1 0 0 0 0 1 0 0 0 1 0"/>
<feBlend mode="normal" in2="BackgroundImageFix" result="effect1_dropShadow_1_1002"/>
<feColorMatrix in="SourceAlpha" type="matrix" values="0 0 0 0 0 0 0 0 0 0 0 0 0 0 0 0 0 0 127 0" result="hardAlpha"/>
<feOffset/>
<feGaussianBlur stdDeviation="63.8534"/>
<feColorMatrix type="matrix" values="0 0 0 0 1 0 0 0 0 1 0 0 0 0 1 0 0 0 1 0"/>
<feBlend mode="normal" in2="effect1_dropShadow_1_1002" result="effect2_dropShadow_1_1002"/>
<feBlend mode="normal" in="SourceGraphic" in2="effect2_dropShadow_1_1002" result="shape"/>
</filter>
</defs>
</svg>
